<mxfile host="app.diagrams.net" modified="2022-10-31T07:26:00.487Z" agent="5.0 (Windows NT 10.0; Win64; x64) AppleWebKit/537.36 (KHTML, like Gecko) Chrome/106.0.0.0 Safari/537.36" etag="jp_w1biWZB1tKeMCjprd" version="20.5.1" type="github">
  <diagram id="5G-h-dJz9C3-KpmdYzJW" name="第 1 页">
    <mxGraphModel dx="607" dy="777" grid="1" gridSize="10" guides="1" tooltips="1" connect="1" arrows="1" fold="1" page="1" pageScale="1" pageWidth="827" pageHeight="1169" math="0" shadow="0">
      <root>
        <mxCell id="0" />
        <mxCell id="1" parent="0" />
        <mxCell id="ERzMQ9y9kJyVMfolK5db-5" value="" style="group" vertex="1" connectable="0" parent="1">
          <mxGeometry x="245" y="80" width="190" height="140" as="geometry" />
        </mxCell>
        <mxCell id="ERzMQ9y9kJyVMfolK5db-2" value="Handoop-master" style="rounded=0;whiteSpace=wrap;html=1;labelPosition=center;verticalLabelPosition=top;align=center;verticalAlign=bottom;" vertex="1" parent="ERzMQ9y9kJyVMfolK5db-5">
          <mxGeometry width="190" height="140" as="geometry" />
        </mxCell>
        <mxCell id="ERzMQ9y9kJyVMfolK5db-3" value="NameNode" style="rounded=1;whiteSpace=wrap;html=1;dashed=1;" vertex="1" parent="ERzMQ9y9kJyVMfolK5db-5">
          <mxGeometry x="35" y="20" width="120" height="40" as="geometry" />
        </mxCell>
        <mxCell id="ERzMQ9y9kJyVMfolK5db-4" value="ResourceManager" style="rounded=1;whiteSpace=wrap;html=1;dashed=1;" vertex="1" parent="ERzMQ9y9kJyVMfolK5db-5">
          <mxGeometry x="35" y="80" width="120" height="40" as="geometry" />
        </mxCell>
        <mxCell id="ERzMQ9y9kJyVMfolK5db-7" value="" style="group" vertex="1" connectable="0" parent="1">
          <mxGeometry x="55" y="320" width="190" height="140" as="geometry" />
        </mxCell>
        <mxCell id="ERzMQ9y9kJyVMfolK5db-8" value="Handoop-slave1" style="rounded=0;whiteSpace=wrap;html=1;labelPosition=center;verticalLabelPosition=top;align=center;verticalAlign=bottom;" vertex="1" parent="ERzMQ9y9kJyVMfolK5db-7">
          <mxGeometry width="190" height="140" as="geometry" />
        </mxCell>
        <mxCell id="ERzMQ9y9kJyVMfolK5db-9" value="DataNode" style="rounded=1;whiteSpace=wrap;html=1;dashed=1;" vertex="1" parent="ERzMQ9y9kJyVMfolK5db-7">
          <mxGeometry x="35" y="20" width="120" height="40" as="geometry" />
        </mxCell>
        <mxCell id="ERzMQ9y9kJyVMfolK5db-10" value="NodeManager" style="rounded=1;whiteSpace=wrap;html=1;dashed=1;" vertex="1" parent="ERzMQ9y9kJyVMfolK5db-7">
          <mxGeometry x="35" y="80" width="120" height="40" as="geometry" />
        </mxCell>
        <mxCell id="ERzMQ9y9kJyVMfolK5db-11" value="" style="group" vertex="1" connectable="0" parent="1">
          <mxGeometry x="435" y="320" width="190" height="140" as="geometry" />
        </mxCell>
        <mxCell id="ERzMQ9y9kJyVMfolK5db-12" value="Handoop-slave2" style="rounded=0;whiteSpace=wrap;html=1;labelPosition=center;verticalLabelPosition=top;align=center;verticalAlign=bottom;" vertex="1" parent="ERzMQ9y9kJyVMfolK5db-11">
          <mxGeometry width="190" height="140" as="geometry" />
        </mxCell>
        <mxCell id="ERzMQ9y9kJyVMfolK5db-13" value="DataNode" style="rounded=1;whiteSpace=wrap;html=1;dashed=1;" vertex="1" parent="ERzMQ9y9kJyVMfolK5db-11">
          <mxGeometry x="35" y="20" width="120" height="40" as="geometry" />
        </mxCell>
        <mxCell id="ERzMQ9y9kJyVMfolK5db-14" value="NodeManager" style="rounded=1;whiteSpace=wrap;html=1;dashed=1;" vertex="1" parent="ERzMQ9y9kJyVMfolK5db-11">
          <mxGeometry x="35" y="80" width="120" height="40" as="geometry" />
        </mxCell>
        <mxCell id="ERzMQ9y9kJyVMfolK5db-15" style="edgeStyle=orthogonalEdgeStyle;rounded=0;orthogonalLoop=1;jettySize=auto;html=1;entryX=1;entryY=0.5;entryDx=0;entryDy=0;" edge="1" parent="1" source="ERzMQ9y9kJyVMfolK5db-2" target="ERzMQ9y9kJyVMfolK5db-8">
          <mxGeometry relative="1" as="geometry">
            <mxPoint x="300" y="420" as="targetPoint" />
          </mxGeometry>
        </mxCell>
        <mxCell id="ERzMQ9y9kJyVMfolK5db-16" style="edgeStyle=orthogonalEdgeStyle;rounded=0;orthogonalLoop=1;jettySize=auto;html=1;entryX=0;entryY=0.5;entryDx=0;entryDy=0;" edge="1" parent="1" source="ERzMQ9y9kJyVMfolK5db-2" target="ERzMQ9y9kJyVMfolK5db-12">
          <mxGeometry relative="1" as="geometry" />
        </mxCell>
      </root>
    </mxGraphModel>
  </diagram>
</mxfile>
